<?xml version="1.0" standalone="no"?><svg xmlns="http://www.w3.org/2000/svg" viewBox="0 0 1440 320"><path fill="#CE93D8" fill-opacity="1" d="M0,256L21.8,261.3C43.6,267,87,277,131,240C174.5,203,218,117,262,69.3C305.5,21,349,11,393,58.7C436.4,107,480,213,524,245.3C567.3,277,611,235,655,229.3C698.2,224,742,256,785,272C829.1,288,873,288,916,250.7C960,213,1004,139,1047,101.3C1090.9,64,1135,64,1178,85.3C1221.8,107,1265,149,1309,149.3C1352.7,149,1396,107,1418,85.3L1440,64L1440,320L1418.2,320C1396.4,320,1353,320,1309,320C1265.5,320,1222,320,1178,320C1134.5,320,1091,320,1047,320C1003.6,320,960,320,916,320C872.7,320,829,320,785,320C741.8,320,698,320,655,320C610.9,320,567,320,524,320C480,320,436,320,393,320C349.1,320,305,320,262,320C218.2,320,175,320,131,320C87.3,320,44,320,22,320L0,320Z"></path></svg>