<?xml version="1.0" encoding="UTF-8" standalone="no"?>
<!-- Created with Inkscape (http://www.inkscape.org/) -->

<svg
   xmlns:dc="http://purl.org/dc/elements/1.1/"
   xmlns:cc="http://creativecommons.org/ns#"
   xmlns:rdf="http://www.w3.org/1999/02/22-rdf-syntax-ns#"
   xmlns:svg="http://www.w3.org/2000/svg"
   xmlns="http://www.w3.org/2000/svg"
   xmlns:sodipodi="http://sodipodi.sourceforge.net/DTD/sodipodi-0.dtd"
   xmlns:inkscape="http://www.inkscape.org/namespaces/inkscape"
   width="223.38538"
   height="47"
   viewBox="0 0 59.104046 12.435417"
   version="1.1"
   id="svg967"
   inkscape:version="0.92.3 (2405546, 2018-03-11)"
   sodipodi:docname="logo-horizontal-black.svg">
  <defs
     id="defs961" />
  <sodipodi:namedview
     id="base"
     pagecolor="#ffffff"
     bordercolor="#666666"
     borderopacity="1.0"
     inkscape:pageopacity="0.0"
     inkscape:pageshadow="2"
     inkscape:zoom="2.8"
     inkscape:cx="165.45445"
     inkscape:cy="14.066438"
     inkscape:document-units="mm"
     inkscape:current-layer="layer1"
     showgrid="false"
     units="px"
     inkscape:pagecheckerboard="true"
     inkscape:window-width="1920"
     inkscape:window-height="1017"
     inkscape:window-x="-8"
     inkscape:window-y="-8"
     inkscape:window-maximized="1"
     fit-margin-top="0"
     fit-margin-left="0"
     fit-margin-right="0"
     fit-margin-bottom="0" />
  <metadata
     id="metadata964">
    <rdf:RDF>
      <cc:Work
         rdf:about="">
        <dc:format>image/svg+xml</dc:format>
        <dc:type
           rdf:resource="http://purl.org/dc/dcmitype/StillImage" />
        <dc:title></dc:title>
      </cc:Work>
    </rdf:RDF>
  </metadata>
  <g
     inkscape:label="Capa 1"
     inkscape:groupmode="layer"
     id="layer1"
     transform="translate(7.192e-7,-284.56456)">
    <g
       transform="matrix(0.12568644,0,0,0.12568644,-23.355056,253.3717)"
       id="g66"
       style="stroke-width:2.10510635">
      <g
         id="g12"
         style="stroke-width:2.10510635">
        <path
           inkscape:connector-curvature="0"
           class="st1"
           d="m 302.73,302.35 h -71.67 c -0.71,-1.48 -1.11,-3.15 -1.11,-4.9 0,-1.75 0.4,-3.41 1.11,-4.9 h 71.67 c 0.18,-2.77 0.51,-5.49 0.99,-8.17 h -76.94 c -3.1,3.47 -4.99,8.05 -4.99,13.07 0,5.02 1.89,9.6 4.99,13.07 h 76.94 c -0.48,-2.68 -0.81,-5.41 -0.99,-8.17"
           id="path6"
           style="stroke-width:2.10510635" />
        <path
           inkscape:connector-curvature="0"
           class="st1"
           d="M 314.94,338.28 H 208.33 c -8.97,-11.19 -14.34,-25.38 -14.34,-40.83 0,-15.45 5.37,-29.65 14.34,-40.83 h 106.61 c 1.92,-2.87 4.04,-5.6 6.34,-8.17 H 204.54 c -11.64,13 -18.72,30.17 -18.72,49 0,18.83 7.08,36 18.72,49 h 116.74 c -2.3,-2.57 -4.42,-5.3 -6.34,-8.17"
           id="path8"
           style="stroke-width:2.10510635" />
        <path
           inkscape:connector-curvature="0"
           class="st1"
           d="m 306.19,320.31 h -86.6 c -4.75,-6.38 -7.57,-14.29 -7.57,-22.87 0,-8.58 2.82,-16.5 7.59,-22.89 h 86.59 c 0.92,-2.8 2,-5.53 3.23,-8.17 h -93.74 c -7.38,8.24 -11.87,19.12 -11.87,31.05 0,11.92 4.49,22.8 11.86,31.03 h 93.74 c -1.23,-2.62 -2.31,-5.34 -3.23,-8.15"
           id="path10"
           style="stroke-width:2.10510635" />
      </g>
      <g
         id="g64"
         style="stroke-width:2.10510635">
        <path
           inkscape:connector-curvature="0"
           class="st1"
           d="m 351.92,286.41 c -2.61,-2.41 -3.91,-6.16 -3.91,-11.26 v -26.7 h 6.82 v 26.17 c 0,3.16 0.74,5.5 2.22,7.02 1.48,1.52 3.84,2.28 7.08,2.28 3.2,0 5.55,-0.76 7.05,-2.28 1.5,-1.52 2.25,-3.86 2.25,-7.02 v -26.17 h 6.82 v 26.7 c 0,5.1 -1.29,8.85 -3.88,11.26 -2.59,2.41 -6.67,3.62 -12.24,3.62 -5.53,-0.01 -9.6,-1.21 -12.21,-3.62 z"
           id="path14"
           style="stroke-width:2.10510635" />
        <path
           inkscape:connector-curvature="0"
           class="st1"
           d="m 411.19,262.22 c 1.94,2.02 2.91,4.96 2.91,8.83 v 17.96 h -6.52 v -16.66 c 0,-2.61 -0.53,-4.52 -1.6,-5.75 -1.07,-1.22 -2.71,-1.84 -4.92,-1.84 -2.33,0 -4.11,0.66 -5.34,1.99 -1.23,1.32 -1.84,3.29 -1.84,5.9 v 16.36 h -6.58 v -29.04 h 6.58 v 3.26 c 2.02,-2.69 5.04,-4.03 9.07,-4.03 3.56,0 6.31,1.01 8.24,3.02 z"
           id="path16"
           style="stroke-width:2.10510635" />
        <rect
           x="420.45001"
           y="259.97"
           class="st1"
           width="6.5799999"
           height="29.040001"
           id="rect18"
           style="stroke-width:2.10510635" />
        <path
           inkscape:connector-curvature="0"
           class="st1"
           d="m 430.84,259.97 h 7.11 l 7.94,21.64 7.88,-21.64 h 7.11 l -11.32,29.04 h -7.35 z"
           id="path20"
           style="stroke-width:2.10510635" />
        <path
           inkscape:connector-curvature="0"
           class="st1"
           d="m 484.67,280.95 c 0.34,-0.67 0.54,-1.34 0.62,-2.02 h 6.52 c -0.28,2.92 -1.42,5.34 -3.44,7.23 -1.3,1.15 -2.88,2.03 -4.74,2.64 -1.86,0.61 -3.89,0.92 -6.1,0.92 -3.4,0 -6.29,-0.67 -8.68,-2.02 -2.39,-1.34 -4.14,-3.24 -5.25,-5.69 -0.95,-2.13 -1.42,-4.66 -1.42,-7.59 0,-1.5 0.12,-2.86 0.36,-4.09 0.24,-1.22 0.59,-2.37 1.07,-3.44 1.11,-2.45 2.82,-4.35 5.13,-5.69 2.31,-1.34 5.09,-2.02 8.33,-2.02 3.24,0 6.02,0.67 8.33,2.02 2.31,1.34 4,3.22 5.07,5.63 0.59,1.34 1,2.75 1.22,4.21 0.22,1.46 0.33,3.2 0.33,5.22 h -23.18 c 0.12,1.74 0.42,3.1 0.89,4.09 0.59,1.34 1.54,2.37 2.85,3.08 1.3,0.71 2.92,1.07 4.86,1.07 1.26,0 2.41,-0.16 3.44,-0.47 1.03,-0.32 1.88,-0.77 2.55,-1.36 0.48,-0.47 0.9,-1.04 1.24,-1.72 z M 469.7,268.68 c -0.4,0.87 -0.65,1.8 -0.77,2.79 h 16.3 c -0.12,-1.03 -0.35,-2.04 -0.71,-3.02 -0.63,-1.3 -1.56,-2.29 -2.79,-2.96 -1.23,-0.67 -2.75,-1.01 -4.56,-1.01 -3.71,-0.01 -6.2,1.4 -7.47,4.2 z"
           id="path22"
           style="stroke-width:2.10510635" />
        <path
           inkscape:connector-curvature="0"
           class="st1"
           d="m 514.46,259.91 v 5.81 c -0.87,-0.2 -1.86,-0.3 -2.96,-0.3 -2.53,0 -4.44,0.76 -5.72,2.28 -1.28,1.52 -1.93,3.73 -1.93,6.61 v 14.7 h -6.58 v -29.04 h 6.52 v 3.38 c 1.7,-2.53 4.27,-3.79 7.71,-3.79 1.14,-0.01 2.13,0.11 2.96,0.35 z"
           id="path24"
           style="stroke-width:2.10510635" />
        <path
           inkscape:connector-curvature="0"
           class="st1"
           d="m 522.42,288.48 c -1.96,-0.95 -3.37,-2.37 -4.24,-4.27 -0.63,-1.38 -0.95,-3 -0.95,-4.86 h 6.4 c 0,1.11 0.2,2.04 0.59,2.79 0.87,1.9 2.75,2.85 5.63,2.85 2.88,0 4.66,-0.75 5.33,-2.25 0.2,-0.51 0.3,-1.01 0.3,-1.48 0,-0.55 -0.1,-1.07 -0.3,-1.54 -0.28,-0.59 -0.72,-1.07 -1.33,-1.42 -0.61,-0.36 -1.36,-0.66 -2.25,-0.92 -0.89,-0.26 -2.14,-0.54 -3.76,-0.86 -2.21,-0.51 -4.09,-1.19 -5.63,-2.04 -1.54,-0.85 -2.65,-2.02 -3.32,-3.53 -0.4,-0.91 -0.59,-1.98 -0.59,-3.2 0,-1.3 0.24,-2.45 0.71,-3.44 0.75,-1.62 2.05,-2.88 3.91,-3.76 1.86,-0.89 4.09,-1.33 6.7,-1.33 2.65,0 4.89,0.44 6.73,1.3 1.84,0.87 3.17,2.15 4,3.85 0.51,1.19 0.77,2.61 0.77,4.27 h -6.22 c 0,-0.87 -0.16,-1.68 -0.47,-2.43 -0.4,-0.79 -1.02,-1.39 -1.87,-1.81 -0.85,-0.41 -1.87,-0.62 -3.05,-0.62 -2.41,0 -3.93,0.65 -4.56,1.96 -0.16,0.36 -0.24,0.81 -0.24,1.36 0,0.51 0.08,0.91 0.24,1.19 0.28,0.63 0.77,1.15 1.48,1.54 0.71,0.4 1.47,0.7 2.28,0.92 0.81,0.22 2.01,0.5 3.59,0.86 2.45,0.63 4.46,1.37 6.02,2.22 1.56,0.85 2.7,2.03 3.41,3.53 0.39,0.91 0.59,2 0.59,3.26 0,1.38 -0.24,2.67 -0.71,3.85 -0.83,1.78 -2.3,3.13 -4.42,4.06 -2.11,0.93 -4.59,1.39 -7.44,1.39 -2.94,-0.02 -5.38,-0.49 -7.33,-1.44 z"
           id="path26"
           style="stroke-width:2.10510635" />
        <rect
           x="547.39001"
           y="259.97"
           class="st1"
           width="6.5799999"
           height="29.040001"
           id="rect28"
           style="stroke-width:2.10510635" />
        <path
           inkscape:connector-curvature="0"
           class="st1"
           d="m 588.63,248.44 v 40.57 h -6.4 v -3.5 c -1.11,1.38 -2.48,2.43 -4.12,3.14 -1.64,0.71 -3.49,1.07 -5.54,1.07 -2.85,0 -5.28,-0.63 -7.29,-1.9 -2.02,-1.26 -3.54,-3.04 -4.56,-5.33 -0.51,-1.15 -0.91,-2.4 -1.19,-3.76 -0.28,-1.36 -0.41,-2.78 -0.41,-4.24 0,-3 0.53,-5.69 1.6,-8.06 1.03,-2.29 2.55,-4.07 4.56,-5.33 2.02,-1.26 4.45,-1.9 7.29,-1.9 2.02,0 3.83,0.35 5.45,1.04 1.62,0.69 2.98,1.71 4.09,3.05 v -14.85 z m -6.52,25.28 c 0,-2.88 -0.7,-5.1 -2.1,-6.64 -1.4,-1.54 -3.33,-2.31 -5.78,-2.31 -1.7,0 -3.16,0.35 -4.39,1.04 -1.23,0.69 -2.15,1.73 -2.79,3.11 -0.63,1.5 -0.95,3.36 -0.95,5.57 0,2.17 0.32,4.01 0.95,5.51 0.63,1.38 1.56,2.43 2.79,3.14 1.22,0.71 2.69,1.07 4.39,1.07 2.45,0 4.38,-0.78 5.78,-2.34 1.4,-1.56 2.1,-3.78 2.1,-6.67 z"
           id="path30"
           style="stroke-width:2.10510635" />
        <path
           inkscape:connector-curvature="0"
           class="st1"
           d="m 621.43,272 v 17.01 h -6.58 v -3.26 c -2.09,2.65 -5.41,3.97 -9.96,3.97 -2.57,0 -4.74,-0.41 -6.52,-1.24 -1.78,-0.83 -3.02,-2.05 -3.73,-3.68 -0.51,-1.15 -0.77,-2.45 -0.77,-3.91 0,-1.46 0.24,-2.73 0.71,-3.79 0.99,-2.17 2.67,-3.67 5.04,-4.48 2.37,-0.81 5.43,-1.22 9.19,-1.22 h 6.05 v -0.77 c 0,-0.75 -0.04,-1.37 -0.12,-1.87 -0.08,-0.49 -0.24,-1 -0.47,-1.51 -0.87,-1.9 -2.88,-2.85 -6.05,-2.85 -1.62,0 -2.94,0.22 -3.97,0.65 -1.03,0.44 -1.76,1.13 -2.19,2.07 -0.28,0.71 -0.41,1.36 -0.41,1.96 H 595 c 0,-1.66 0.28,-3.06 0.83,-4.21 1.7,-3.79 5.81,-5.69 12.33,-5.69 3.2,0 5.8,0.47 7.79,1.42 1.99,0.95 3.43,2.43 4.3,4.45 0.79,1.76 1.18,4.07 1.18,6.95 z m -6.58,4.51 v -0.36 h -5.63 c -2.17,0 -3.97,0.18 -5.39,0.53 -1.42,0.36 -2.35,1.01 -2.79,1.96 -0.24,0.47 -0.35,1.03 -0.35,1.66 0,0.63 0.12,1.23 0.35,1.78 0.39,0.83 1.09,1.44 2.08,1.84 0.99,0.4 2.15,0.59 3.5,0.59 1.9,0 3.48,-0.34 4.74,-1.01 1.26,-0.67 2.19,-1.66 2.79,-2.96 0.47,-1.15 0.7,-2.49 0.7,-4.03 z"
           id="path32"
           style="stroke-width:2.10510635" />
        <path
           inkscape:connector-curvature="0"
           class="st1"
           d="m 655.97,248.44 v 40.57 h -6.4 v -3.5 c -1.11,1.38 -2.48,2.43 -4.12,3.14 -1.64,0.71 -3.49,1.07 -5.54,1.07 -2.85,0 -5.28,-0.63 -7.29,-1.9 -2.02,-1.26 -3.54,-3.04 -4.56,-5.33 -0.51,-1.15 -0.91,-2.4 -1.19,-3.76 -0.28,-1.36 -0.41,-2.78 -0.41,-4.24 0,-3 0.53,-5.69 1.6,-8.06 1.03,-2.29 2.55,-4.07 4.56,-5.33 2.02,-1.26 4.45,-1.9 7.29,-1.9 2.02,0 3.83,0.35 5.45,1.04 1.62,0.69 2.98,1.71 4.09,3.05 v -14.85 z m -6.52,25.28 c 0,-2.88 -0.7,-5.1 -2.1,-6.64 -1.4,-1.54 -3.33,-2.31 -5.78,-2.31 -1.7,0 -3.16,0.35 -4.39,1.04 -1.23,0.69 -2.15,1.73 -2.79,3.11 -0.63,1.5 -0.95,3.36 -0.95,5.57 0,2.17 0.32,4.01 0.95,5.51 0.63,1.38 1.56,2.43 2.79,3.14 1.22,0.71 2.69,1.07 4.39,1.07 2.45,0 4.38,-0.78 5.78,-2.34 1.4,-1.56 2.1,-3.78 2.1,-6.67 z"
           id="path34"
           style="stroke-width:2.10510635" />
        <path
           inkscape:connector-curvature="0"
           class="st1"
           d="m 356.13,344.38 c -3.04,-1.82 -5.3,-4.41 -6.76,-7.77 -1.42,-3.12 -2.13,-6.94 -2.13,-11.44 0,-4.43 0.71,-8.26 2.13,-11.5 1.5,-3.32 3.76,-5.89 6.79,-7.71 3.02,-1.82 6.73,-2.73 11.11,-2.73 2.73,0 5.24,0.4 7.53,1.19 2.29,0.79 4.27,1.96 5.93,3.5 1.54,1.38 2.75,3.06 3.62,5.04 0.87,1.98 1.34,4.13 1.42,6.46 h -7.17 c -0.16,-3 -1.21,-5.41 -3.14,-7.23 -2.13,-1.9 -4.94,-2.85 -8.42,-2.85 -2.69,0 -4.96,0.56 -6.82,1.69 -1.86,1.13 -3.26,2.72 -4.21,4.77 -0.51,1.23 -0.9,2.6 -1.16,4.12 -0.26,1.52 -0.39,3.27 -0.39,5.25 0,2.02 0.12,3.78 0.36,5.31 0.24,1.52 0.63,2.88 1.19,4.06 0.95,2.09 2.35,3.7 4.21,4.8 1.86,1.11 4.13,1.66 6.82,1.66 1.78,0 3.4,-0.25 4.86,-0.74 1.46,-0.49 2.71,-1.19 3.73,-2.1 1.94,-1.74 2.96,-4.19 3.08,-7.35 h 7.17 c -0.04,2.37 -0.48,4.55 -1.33,6.52 -0.85,1.98 -2.05,3.68 -3.59,5.1 -1.66,1.54 -3.66,2.71 -5.99,3.5 -2.33,0.79 -4.88,1.19 -7.65,1.19 -4.41,-0.02 -8.14,-0.93 -11.19,-2.74 z"
           id="path36"
           style="stroke-width:2.10510635" />
        <path
           inkscape:connector-curvature="0"
           class="st1"
           d="m 397.2,344.73 c -2.29,-1.38 -3.99,-3.3 -5.1,-5.75 -0.99,-2.09 -1.48,-4.56 -1.48,-7.41 0,-2.85 0.49,-5.33 1.48,-7.47 1.11,-2.45 2.81,-4.37 5.1,-5.75 2.29,-1.38 5.1,-2.07 8.42,-2.07 3.32,0 6.14,0.69 8.45,2.07 2.31,1.38 4.02,3.3 5.13,5.75 0.99,2.21 1.48,4.7 1.48,7.47 0,2.69 -0.5,5.18 -1.48,7.47 -1.11,2.45 -2.82,4.36 -5.13,5.72 -2.31,1.36 -5.13,2.04 -8.45,2.04 -3.32,0.01 -6.12,-0.69 -8.42,-2.07 z m 12.9,-4.53 c 1.2,-0.73 2.1,-1.75 2.7,-3.05 0.59,-1.34 0.89,-3.2 0.89,-5.57 0,-2.41 -0.3,-4.27 -0.89,-5.57 -0.59,-1.34 -1.49,-2.37 -2.7,-3.08 -1.21,-0.71 -2.7,-1.07 -4.48,-1.07 -1.78,0 -3.26,0.36 -4.45,1.07 -1.19,0.71 -2.07,1.74 -2.67,3.08 -0.63,1.38 -0.95,3.24 -0.95,5.57 0,2.29 0.32,4.15 0.95,5.57 0.59,1.3 1.48,2.32 2.67,3.05 1.19,0.73 2.67,1.1 4.45,1.1 1.78,-0.01 3.27,-0.37 4.48,-1.1 z"
           id="path38"
           style="stroke-width:2.10510635" />
        <path
           inkscape:connector-curvature="0"
           class="st1"
           d="m 449.73,319.3 c 1.93,2.02 2.9,4.96 2.9,8.83 v 17.96 h -6.52 v -16.66 c 0,-2.61 -0.53,-4.52 -1.6,-5.75 -1.07,-1.22 -2.71,-1.84 -4.92,-1.84 -2.33,0 -4.11,0.66 -5.33,1.99 -1.23,1.32 -1.84,3.29 -1.84,5.9 v 16.36 h -6.58 v -29.05 h 6.58 v 3.26 c 2.02,-2.69 5.04,-4.03 9.07,-4.03 3.56,0.01 6.31,1.02 8.24,3.03 z"
           id="path40"
           style="stroke-width:2.10510635" />
        <path
           inkscape:connector-curvature="0"
           class="st1"
           d="m 463.35,344.35 c -1.44,-1.48 -2.16,-3.88 -2.16,-7.2 v -14.7 h -4.51 v -5.39 h 4.51 v -11.8 h 6.52 v 11.8 h 8.24 v 5.39 h -8.24 v 13.51 c 0,1.74 0.37,3.01 1.1,3.82 0.73,0.81 1.87,1.22 3.41,1.22 1.26,0 2.43,-0.16 3.5,-0.47 v 5.45 c -1.86,0.39 -3.67,0.59 -5.45,0.59 -3.17,0 -5.47,-0.74 -6.92,-2.22 z"
           id="path42"
           style="stroke-width:2.10510635" />
        <rect
           x="481.98999"
           y="317.04999"
           class="st1"
           width="6.5799999"
           height="29.040001"
           id="rect44"
           style="stroke-width:2.10510635" />
        <path
           inkscape:connector-curvature="0"
           class="st1"
           d="m 519.39,319.3 c 1.93,2.02 2.9,4.96 2.9,8.83 v 17.96 h -6.52 v -16.66 c 0,-2.61 -0.53,-4.52 -1.6,-5.75 -1.07,-1.22 -2.71,-1.84 -4.92,-1.84 -2.33,0 -4.11,0.66 -5.34,1.99 -1.23,1.32 -1.84,3.29 -1.84,5.9 v 16.36 h -6.58 v -29.05 h 6.58 v 3.26 c 2.02,-2.69 5.04,-4.03 9.07,-4.03 3.56,0.01 6.31,1.02 8.25,3.03 z"
           id="path46"
           style="stroke-width:2.10510635" />
        <path
           inkscape:connector-curvature="0"
           class="st1"
           d="m 550.06,338.03 c 0.34,-0.67 0.54,-1.34 0.62,-2.02 h 6.52 c -0.28,2.92 -1.42,5.34 -3.44,7.23 -1.3,1.15 -2.88,2.03 -4.74,2.64 -1.86,0.61 -3.89,0.92 -6.1,0.92 -3.4,0 -6.29,-0.67 -8.68,-2.02 -2.39,-1.34 -4.14,-3.24 -5.25,-5.69 -0.95,-2.13 -1.42,-4.66 -1.42,-7.59 0,-1.5 0.12,-2.86 0.36,-4.09 0.24,-1.22 0.59,-2.37 1.07,-3.44 1.11,-2.45 2.82,-4.35 5.13,-5.69 2.31,-1.34 5.09,-2.02 8.33,-2.02 3.24,0 6.02,0.67 8.33,2.02 2.31,1.34 4,3.22 5.07,5.63 0.59,1.34 1,2.75 1.22,4.21 0.22,1.46 0.33,3.2 0.33,5.22 H 534.2 c 0.12,1.74 0.42,3.1 0.89,4.09 0.59,1.34 1.54,2.37 2.85,3.08 1.3,0.71 2.92,1.07 4.86,1.07 1.26,0 2.41,-0.16 3.44,-0.47 1.03,-0.32 1.88,-0.77 2.55,-1.36 0.51,-0.47 0.93,-1.04 1.27,-1.72 z m -14.97,-12.27 c -0.4,0.87 -0.65,1.8 -0.77,2.79 h 16.3 c -0.12,-1.03 -0.35,-2.04 -0.71,-3.02 -0.63,-1.3 -1.56,-2.29 -2.79,-2.96 -1.23,-0.67 -2.75,-1.01 -4.56,-1.01 -3.71,-0.01 -6.2,1.4 -7.47,4.2 z"
           id="path48"
           style="stroke-width:2.10510635" />
        <path
           inkscape:connector-curvature="0"
           class="st1"
           d="m 586.85,319.3 c 1.93,2.02 2.9,4.96 2.9,8.83 v 17.96 h -6.52 v -16.66 c 0,-2.61 -0.53,-4.52 -1.6,-5.75 -1.07,-1.22 -2.71,-1.84 -4.92,-1.84 -2.33,0 -4.11,0.66 -5.34,1.99 -1.23,1.32 -1.84,3.29 -1.84,5.9 v 16.36 h -6.58 v -29.05 h 6.58 v 3.26 c 2.02,-2.69 5.04,-4.03 9.07,-4.03 3.56,0.01 6.31,1.02 8.25,3.03 z"
           id="path50"
           style="stroke-width:2.10510635" />
        <path
           inkscape:connector-curvature="0"
           class="st1"
           d="m 600.47,344.35 c -1.44,-1.48 -2.16,-3.88 -2.16,-7.2 v -14.7 h -4.51 v -5.39 h 4.51 v -11.8 h 6.52 v 11.8 h 8.24 v 5.39 h -8.24 v 13.51 c 0,1.74 0.37,3.01 1.1,3.82 0.73,0.81 1.87,1.22 3.41,1.22 1.26,0 2.43,-0.16 3.5,-0.47 v 5.45 c -1.86,0.39 -3.67,0.59 -5.45,0.59 -3.18,0 -5.48,-0.74 -6.92,-2.22 z"
           id="path52"
           style="stroke-width:2.10510635" />
        <path
           inkscape:connector-curvature="0"
           class="st1"
           d="m 644.36,329.08 v 17.01 h -6.58 v -3.26 c -2.09,2.65 -5.41,3.97 -9.96,3.97 -2.57,0 -4.74,-0.41 -6.52,-1.24 -1.78,-0.83 -3.02,-2.05 -3.73,-3.68 -0.51,-1.15 -0.77,-2.45 -0.77,-3.91 0,-1.46 0.24,-2.73 0.71,-3.79 0.99,-2.17 2.67,-3.67 5.04,-4.48 2.37,-0.81 5.43,-1.22 9.19,-1.22 h 6.05 v -0.77 c 0,-0.75 -0.04,-1.37 -0.12,-1.87 -0.08,-0.49 -0.24,-1 -0.47,-1.51 -0.87,-1.9 -2.88,-2.85 -6.05,-2.85 -1.62,0 -2.94,0.22 -3.97,0.65 -1.03,0.44 -1.76,1.13 -2.19,2.07 -0.28,0.71 -0.41,1.36 -0.41,1.96 h -6.64 c 0,-1.66 0.28,-3.06 0.83,-4.21 1.7,-3.79 5.81,-5.69 12.33,-5.69 3.2,0 5.8,0.47 7.79,1.42 1.99,0.95 3.43,2.43 4.3,4.45 0.78,1.76 1.17,4.07 1.17,6.95 z m -6.58,4.51 v -0.36 h -5.63 c -2.17,0 -3.97,0.18 -5.39,0.53 -1.42,0.36 -2.35,1.01 -2.79,1.96 -0.24,0.47 -0.35,1.03 -0.35,1.66 0,0.63 0.12,1.23 0.35,1.78 0.39,0.83 1.09,1.44 2.08,1.84 0.99,0.4 2.15,0.59 3.5,0.59 1.9,0 3.48,-0.34 4.74,-1.01 1.26,-0.67 2.19,-1.66 2.79,-2.96 0.47,-1.15 0.7,-2.49 0.7,-4.03 z"
           id="path54"
           style="stroke-width:2.10510635" />
        <path
           inkscape:connector-curvature="0"
           class="st1"
           d="m 649.49,305.25 h 6.58 v 40.84 h -6.58 z"
           id="path56"
           style="stroke-width:2.10510635" />
        <circle
           class="st1"
           cx="423.73999"
           cy="252.06"
           r="3.8800001"
           id="circle58"
           style="stroke-width:2.10510635" />
        <circle
           class="st1"
           cx="485.28"
           cy="308.88"
           r="3.8800001"
           id="circle60"
           style="stroke-width:2.10510635" />
        <circle
           class="st1"
           cx="550.67999"
           cy="252.06"
           r="3.8800001"
           id="circle62"
           style="stroke-width:2.10510635" />
      </g>
    </g>
  </g>
</svg>
